<?xml version="1.0" encoding="UTF-8" standalone="no"?>
<!-- Created with Inkscape (http://www.inkscape.org/) -->

<svg
   xmlns:dc="http://purl.org/dc/elements/1.1/"
   xmlns:cc="http://creativecommons.org/ns#"
   xmlns:rdf="http://www.w3.org/1999/02/22-rdf-syntax-ns#"
   xmlns:svg="http://www.w3.org/2000/svg"
   xmlns="http://www.w3.org/2000/svg"
   xmlns:sodipodi="http://sodipodi.sourceforge.net/DTD/sodipodi-0.dtd"
   xmlns:inkscape="http://www.inkscape.org/namespaces/inkscape"
   width="192"
   height="192"
   viewBox="0 0 192.00001 192.00001"
   id="svg7077"
   version="1.1"
   inkscape:version="0.91 r13725"
   sodipodi:docname="logo_android.svg"
   inkscape:export-filename="/Users/kvorobyev/Dev/TaskwarriorAndroid/art/logo_android_512.png"
   inkscape:export-xdpi="261.82001"
   inkscape:export-ydpi="261.82001">
  <defs
     id="defs7079">
    <filter
       inkscape:collect="always"
       style="color-interpolation-filters:sRGB"
       id="filter7804"
       x="-0.074107726"
       width="1.1482155"
       y="-0.050404589"
       height="1.1008092">
      <feGaussianBlur
         inkscape:collect="always"
         stdDeviation="2.3021317"
         id="feGaussianBlur7806" />
    </filter>
  </defs>
  <sodipodi:namedview
     id="base"
     pagecolor="#ffffff"
     bordercolor="#666666"
     borderopacity="1.0"
     inkscape:pageopacity="0.0"
     inkscape:pageshadow="2"
     inkscape:zoom="2.8"
     inkscape:cx="90.704389"
     inkscape:cy="105.46301"
     inkscape:document-units="px"
     inkscape:current-layer="svg7077"
     showgrid="false"
     units="px"
     inkscape:window-width="1440"
     inkscape:window-height="801"
     inkscape:window-x="0"
     inkscape:window-y="0"
     inkscape:window-maximized="1" />
  <metadata
     id="metadata7082">
    <rdf:RDF>
      <cc:Work
         rdf:about="">
        <dc:format>image/svg+xml</dc:format>
        <dc:type
           rdf:resource="http://purl.org/dc/dcmitype/StillImage" />
        <dc:title />
      </cc:Work>
    </rdf:RDF>
  </metadata>
  <g
     inkscape:groupmode="layer"
     id="layer4"
     inkscape:label="tint"
     style="display:inline">
    <circle
       style="fill:#c0c0c0;fill-opacity:1;stroke:none"
       id="path7682"
       cx="96.000008"
       cy="100"
       r="88.000008" />
  </g>
  <g
     inkscape:groupmode="layer"
     id="layer3"
     inkscape:label="bg"
     style="display:inline">
    <circle
       style="fill:#4d4d4d;fill-opacity:1;stroke:none"
       id="path7114"
       cx="96.000008"
       cy="96.000008"
       r="88.000008" />
    <circle
       style="fill:#ffffff;fill-opacity:1;stroke:none"
       id="path7658"
       cx="96.000008"
       cy="96.000008"
       r="80.000008" />
    <ellipse
       style="fill:#4d4d4d;fill-opacity:1;stroke:none"
       id="path7660"
       cx="96.000008"
       cy="95.599998"
       rx="76.000008"
       ry="76.400002" />
  </g>
  <g
     style="display:inline"
     inkscape:label="center tint"
     id="g7684"
     inkscape:groupmode="layer">
    <path
       sodipodi:nodetypes="ccccccccccccccccccccc"
       inkscape:connector-curvature="0"
       id="path7686"
       d="m 88.499436,131.32033 0,-23.63096 c -5.781655,-4.33138 -11.595461,-8.620491 -17.339381,-13.001731 -4.716883,-10.2259 6.410001,-4.98477 12.372052,-4.50829 7.359134,1.54252 14.957602,2.32516 22.342743,0.4647 5.34544,-0.87792 10.68007,-1.83097 16.04433,-2.58716 0.86765,6.66628 -4.62657,9.74616 -9.5035,12.913851 -3.55184,3.51483 -11.09763,5.10769 -9.27455,11.36219 l 0,42.61208 c 11.96864,-4.2705 21.57623,-13.0634 30.37207,-21.94424 -4.29925,-11.89884 -7.669,-24.48212 -6.87055,-37.231961 -0.0417,-5.56164 4.13052,-10.24005 3.39543,-15.89296 0.42864,-8.06761 -2.08457,-16.42258 -6.95847,-22.87257 -5.27643,-6.94365 -13.72416,-10.85804 -22.28445,-11.64251 -5.893002,0.0714 -11.877148,-0.54976 -17.489239,1.65613 -9.840653,3.0793 -17.208988,11.82555 -19.633995,21.72538 -1.956452,6.68502 -2.868614,14.25458 0.446628,20.66045 3.972082,12.219371 -0.0569,25.261911 -3.30138,37.176491 -4.276115,5.45649 -0.411358,9.26256 3.898429,12.54809 7.010416,6.436 14.717959,12.3975 23.687454,15.8197 0.122892,-7.8746 0.07798,-15.75128 0.09638,-23.62668 z"
       style="fill:#d1d1d1;fill-opacity:1;filter:url(#filter7804)" />
  </g>
  <g
     inkscape:groupmode="layer"
     id="layer2"
     inkscape:label="center"
     style="display:inline">
    <path
       transform="translate(0,-860.36217)"
       style="fill:#ffffff;fill-opacity:1"
       d="m 88.499061,987.68212 0,-23.63096 C 82.717406,959.71978 76.9036,955.43067 71.15968,951.04943 c -4.716883,-10.2259 6.410001,-4.98477 12.372052,-4.50829 7.359134,1.54252 14.957602,2.32516 22.342738,0.4647 5.34544,-0.87792 10.68007,-1.83097 16.04433,-2.58716 0.86765,6.66628 -4.62657,9.74616 -9.5035,12.91385 -3.55184,3.51483 -11.09763,5.10769 -9.27455,11.36219 l 0,42.61208 c 11.96864,-4.2705 21.57623,-13.0634 30.37207,-21.94424 -4.29925,-11.89884 -7.669,-24.48212 -6.87055,-37.23196 -0.0417,-5.56164 4.13052,-10.24005 3.39543,-15.89296 0.42864,-8.06761 -2.08457,-16.42258 -6.95847,-22.87257 -5.27643,-6.94365 -13.72416,-10.85804 -22.28445,-11.64251 -5.892997,0.0714 -11.877143,-0.54976 -17.489234,1.65613 -9.840653,3.0793 -17.208988,11.82555 -19.633995,21.72538 -1.956452,6.68502 -2.868614,14.25458 0.446628,20.66045 3.972082,12.21937 -0.0569,25.26191 -3.30138,37.17649 -4.276115,5.45649 -0.411358,9.26256 3.898429,12.54809 7.010416,6.436 14.717959,12.3975 23.687454,15.8197 0.122892,-7.8746 0.07798,-15.75128 0.09638,-23.62668 z"
       id="path7066"
       inkscape:connector-curvature="0"
       sodipodi:nodetypes="ccccccccccccccccccccc" />
  </g>
</svg>
